<svg width="399" height="399" viewBox="0 0 399 399" fill="none" xmlns="http://www.w3.org/2000/svg">
<path d="M63.1044 1L396.107 1C397.212 1 398 1.89543 398 2.99999L398 286.721C398 287.271 397.774 287.797 397.374 288.175L343.296 339.314C342.897 339.692 342.67 340.217 342.67 340.767L342.67 396C342.67 397.105 341.775 398 340.67 398L3.00133 398C1.89677 398 1.00134 397.105 1.00133 396L1 93.7581C0.999999 93.1793 1.25072 92.6289 1.6874 92.2491L60.4639 41.1222C60.9006 40.7424 61.1513 40.192 61.1513 39.6133L61.1526 2.99993C61.1526 1.89539 61.9998 1 63.1044 1Z" stroke="#5B5B5B" stroke-width="2"/>
</svg>
